<mxfile host="Electron" modified="2024-04-23T07:18:24.299Z" agent="Mozilla/5.0 (Windows NT 10.0; Win64; x64) AppleWebKit/537.36 (KHTML, like Gecko) draw.io/22.0.0 Chrome/114.0.5735.289 Electron/25.8.3 Safari/537.36" etag="1RXKdfAFLKZicG3g2mtM" version="22.0.0" type="device" pages="2">
  <diagram name="Page-1" id="jFTeMiooJRTnFvwavnHP">
    <mxGraphModel dx="1418" dy="820" grid="1" gridSize="10" guides="1" tooltips="1" connect="1" arrows="1" fold="1" page="1" pageScale="1" pageWidth="827" pageHeight="1169" math="0" shadow="0">
      <root>
        <mxCell id="0" />
        <mxCell id="1" parent="0" />
        <mxCell id="LrIv0jJD6RuySrVvURYo-1" value="Bundler" style="swimlane;fontStyle=1;align=center;verticalAlign=top;childLayout=stackLayout;horizontal=1;startSize=26;horizontalStack=0;resizeParent=1;resizeParentMax=0;resizeLast=0;collapsible=1;marginBottom=0;whiteSpace=wrap;html=1;" parent="1" vertex="1">
          <mxGeometry x="50" y="130" width="230" height="218" as="geometry" />
        </mxCell>
        <mxCell id="LrIv0jJD6RuySrVvURYo-4" value="data:string[][]" style="text;strokeColor=none;fillColor=none;align=left;verticalAlign=top;spacingLeft=4;spacingRight=4;overflow=hidden;rotatable=0;points=[[0,0.5],[1,0.5]];portConstraint=eastwest;whiteSpace=wrap;html=1;" parent="LrIv0jJD6RuySrVvURYo-1" vertex="1">
          <mxGeometry y="26" width="230" height="26" as="geometry" />
        </mxCell>
        <mxCell id="8ZKFHSdkrMpT8Rq4CFJd-8" value="ingredients:string[][]" style="text;strokeColor=none;fillColor=none;align=left;verticalAlign=top;spacingLeft=4;spacingRight=4;overflow=hidden;rotatable=0;points=[[0,0.5],[1,0.5]];portConstraint=eastwest;whiteSpace=wrap;html=1;" parent="LrIv0jJD6RuySrVvURYo-1" vertex="1">
          <mxGeometry y="52" width="230" height="26" as="geometry" />
        </mxCell>
        <mxCell id="8ZKFHSdkrMpT8Rq4CFJd-7" value="product:string[]&lt;br&gt;" style="text;strokeColor=none;fillColor=none;align=left;verticalAlign=top;spacingLeft=4;spacingRight=4;overflow=hidden;rotatable=0;points=[[0,0.5],[1,0.5]];portConstraint=eastwest;whiteSpace=wrap;html=1;" parent="LrIv0jJD6RuySrVvURYo-1" vertex="1">
          <mxGeometry y="78" width="230" height="26" as="geometry" />
        </mxCell>
        <mxCell id="8ZKFHSdkrMpT8Rq4CFJd-9" value="baseSpirit: string" style="text;strokeColor=none;fillColor=none;align=left;verticalAlign=top;spacingLeft=4;spacingRight=4;overflow=hidden;rotatable=0;points=[[0,0.5],[1,0.5]];portConstraint=eastwest;whiteSpace=wrap;html=1;" parent="LrIv0jJD6RuySrVvURYo-1" vertex="1">
          <mxGeometry y="104" width="230" height="26" as="geometry" />
        </mxCell>
        <mxCell id="LrIv0jJD6RuySrVvURYo-3" value="" style="line;strokeWidth=1;fillColor=none;align=left;verticalAlign=middle;spacingTop=-1;spacingLeft=3;spacingRight=3;rotatable=0;labelPosition=right;points=[];portConstraint=eastwest;strokeColor=inherit;" parent="LrIv0jJD6RuySrVvURYo-1" vertex="1">
          <mxGeometry y="130" width="230" height="10" as="geometry" />
        </mxCell>
        <mxCell id="8ZKFHSdkrMpT8Rq4CFJd-10" value="FillIngredients()&lt;br&gt;" style="text;strokeColor=none;fillColor=none;align=left;verticalAlign=top;spacingLeft=4;spacingRight=4;overflow=hidden;rotatable=0;points=[[0,0.5],[1,0.5]];portConstraint=eastwest;whiteSpace=wrap;html=1;" parent="LrIv0jJD6RuySrVvURYo-1" vertex="1">
          <mxGeometry y="140" width="230" height="26" as="geometry" />
        </mxCell>
        <mxCell id="8ZKFHSdkrMpT8Rq4CFJd-12" value="SetBartender(DrinkMaker newbartender)" style="text;strokeColor=none;fillColor=none;align=left;verticalAlign=top;spacingLeft=4;spacingRight=4;overflow=hidden;rotatable=0;points=[[0,0.5],[1,0.5]];portConstraint=eastwest;whiteSpace=wrap;html=1;" parent="LrIv0jJD6RuySrVvURYo-1" vertex="1">
          <mxGeometry y="166" width="230" height="26" as="geometry" />
        </mxCell>
        <mxCell id="8ZKFHSdkrMpT8Rq4CFJd-11" value="BringToClient()" style="text;strokeColor=none;fillColor=none;align=left;verticalAlign=top;spacingLeft=4;spacingRight=4;overflow=hidden;rotatable=0;points=[[0,0.5],[1,0.5]];portConstraint=eastwest;whiteSpace=wrap;html=1;" parent="LrIv0jJD6RuySrVvURYo-1" vertex="1">
          <mxGeometry y="192" width="230" height="26" as="geometry" />
        </mxCell>
        <mxCell id="LrIv0jJD6RuySrVvURYo-6" value="DrinkMaker" style="swimlane;fontStyle=1;align=center;verticalAlign=top;childLayout=stackLayout;horizontal=1;startSize=26;horizontalStack=0;resizeParent=1;resizeParentMax=0;resizeLast=0;collapsible=1;marginBottom=0;whiteSpace=wrap;html=1;" parent="1" vertex="1">
          <mxGeometry x="450" y="207" width="160" height="86" as="geometry" />
        </mxCell>
        <mxCell id="LrIv0jJD6RuySrVvURYo-8" value="" style="line;strokeWidth=1;fillColor=none;align=left;verticalAlign=middle;spacingTop=-1;spacingLeft=3;spacingRight=3;rotatable=0;labelPosition=right;points=[];portConstraint=eastwest;strokeColor=inherit;" parent="LrIv0jJD6RuySrVvURYo-6" vertex="1">
          <mxGeometry y="26" width="160" height="8" as="geometry" />
        </mxCell>
        <mxCell id="LrIv0jJD6RuySrVvURYo-9" value="MakeDrink()&lt;br&gt;" style="text;strokeColor=none;fillColor=none;align=left;verticalAlign=top;spacingLeft=4;spacingRight=4;overflow=hidden;rotatable=0;points=[[0,0.5],[1,0.5]];portConstraint=eastwest;whiteSpace=wrap;html=1;" parent="LrIv0jJD6RuySrVvURYo-6" vertex="1">
          <mxGeometry y="34" width="160" height="26" as="geometry" />
        </mxCell>
        <mxCell id="8ZKFHSdkrMpT8Rq4CFJd-6" value="DecideProduct()" style="text;strokeColor=none;fillColor=none;align=left;verticalAlign=top;spacingLeft=4;spacingRight=4;overflow=hidden;rotatable=0;points=[[0,0.5],[1,0.5]];portConstraint=eastwest;whiteSpace=wrap;html=1;" parent="LrIv0jJD6RuySrVvURYo-6" vertex="1">
          <mxGeometry y="60" width="160" height="26" as="geometry" />
        </mxCell>
        <mxCell id="LrIv0jJD6RuySrVvURYo-10" value="CocktailMaker" style="swimlane;fontStyle=1;align=center;verticalAlign=top;childLayout=stackLayout;horizontal=1;startSize=26;horizontalStack=0;resizeParent=1;resizeParentMax=0;resizeLast=0;collapsible=1;marginBottom=0;whiteSpace=wrap;html=1;" parent="1" vertex="1">
          <mxGeometry x="220" y="450" width="150" height="86" as="geometry" />
        </mxCell>
        <mxCell id="LrIv0jJD6RuySrVvURYo-12" value="" style="line;strokeWidth=1;fillColor=none;align=left;verticalAlign=middle;spacingTop=-1;spacingLeft=3;spacingRight=3;rotatable=0;labelPosition=right;points=[];portConstraint=eastwest;strokeColor=inherit;" parent="LrIv0jJD6RuySrVvURYo-10" vertex="1">
          <mxGeometry y="26" width="150" height="8" as="geometry" />
        </mxCell>
        <mxCell id="LrIv0jJD6RuySrVvURYo-13" value="MakeDrink()" style="text;strokeColor=none;fillColor=none;align=left;verticalAlign=top;spacingLeft=4;spacingRight=4;overflow=hidden;rotatable=0;points=[[0,0.5],[1,0.5]];portConstraint=eastwest;whiteSpace=wrap;html=1;" parent="LrIv0jJD6RuySrVvURYo-10" vertex="1">
          <mxGeometry y="34" width="150" height="26" as="geometry" />
        </mxCell>
        <mxCell id="8ZKFHSdkrMpT8Rq4CFJd-2" value="DecideProduct()" style="text;strokeColor=none;fillColor=none;align=left;verticalAlign=top;spacingLeft=4;spacingRight=4;overflow=hidden;rotatable=0;points=[[0,0.5],[1,0.5]];portConstraint=eastwest;whiteSpace=wrap;html=1;" parent="LrIv0jJD6RuySrVvURYo-10" vertex="1">
          <mxGeometry y="60" width="150" height="26" as="geometry" />
        </mxCell>
        <mxCell id="LrIv0jJD6RuySrVvURYo-14" value="ShotMaker" style="swimlane;fontStyle=1;align=center;verticalAlign=top;childLayout=stackLayout;horizontal=1;startSize=26;horizontalStack=0;resizeParent=1;resizeParentMax=0;resizeLast=0;collapsible=1;marginBottom=0;whiteSpace=wrap;html=1;" parent="1" vertex="1">
          <mxGeometry x="440" y="450" width="160" height="86" as="geometry" />
        </mxCell>
        <mxCell id="LrIv0jJD6RuySrVvURYo-16" value="" style="line;strokeWidth=1;fillColor=none;align=left;verticalAlign=middle;spacingTop=-1;spacingLeft=3;spacingRight=3;rotatable=0;labelPosition=right;points=[];portConstraint=eastwest;strokeColor=inherit;" parent="LrIv0jJD6RuySrVvURYo-14" vertex="1">
          <mxGeometry y="26" width="160" height="8" as="geometry" />
        </mxCell>
        <mxCell id="LrIv0jJD6RuySrVvURYo-17" value="MakeDrink()" style="text;strokeColor=none;fillColor=none;align=left;verticalAlign=top;spacingLeft=4;spacingRight=4;overflow=hidden;rotatable=0;points=[[0,0.5],[1,0.5]];portConstraint=eastwest;whiteSpace=wrap;html=1;" parent="LrIv0jJD6RuySrVvURYo-14" vertex="1">
          <mxGeometry y="34" width="160" height="26" as="geometry" />
        </mxCell>
        <mxCell id="8ZKFHSdkrMpT8Rq4CFJd-5" value="DecideProduct()" style="text;strokeColor=none;fillColor=none;align=left;verticalAlign=top;spacingLeft=4;spacingRight=4;overflow=hidden;rotatable=0;points=[[0,0.5],[1,0.5]];portConstraint=eastwest;whiteSpace=wrap;html=1;" parent="LrIv0jJD6RuySrVvURYo-14" vertex="1">
          <mxGeometry y="60" width="160" height="26" as="geometry" />
        </mxCell>
        <mxCell id="LrIv0jJD6RuySrVvURYo-18" value="BeerMaker" style="swimlane;fontStyle=1;align=center;verticalAlign=top;childLayout=stackLayout;horizontal=1;startSize=26;horizontalStack=0;resizeParent=1;resizeParentMax=0;resizeLast=0;collapsible=1;marginBottom=0;whiteSpace=wrap;html=1;" parent="1" vertex="1">
          <mxGeometry x="660" y="450" width="160" height="60" as="geometry" />
        </mxCell>
        <mxCell id="LrIv0jJD6RuySrVvURYo-20" value="" style="line;strokeWidth=1;fillColor=none;align=left;verticalAlign=middle;spacingTop=-1;spacingLeft=3;spacingRight=3;rotatable=0;labelPosition=right;points=[];portConstraint=eastwest;strokeColor=inherit;" parent="LrIv0jJD6RuySrVvURYo-18" vertex="1">
          <mxGeometry y="26" width="160" height="8" as="geometry" />
        </mxCell>
        <mxCell id="LrIv0jJD6RuySrVvURYo-21" value="MakeDrink()" style="text;strokeColor=none;fillColor=none;align=left;verticalAlign=top;spacingLeft=4;spacingRight=4;overflow=hidden;rotatable=0;points=[[0,0.5],[1,0.5]];portConstraint=eastwest;whiteSpace=wrap;html=1;" parent="LrIv0jJD6RuySrVvURYo-18" vertex="1">
          <mxGeometry y="34" width="160" height="26" as="geometry" />
        </mxCell>
        <mxCell id="LrIv0jJD6RuySrVvURYo-23" value="bartenderStrategy&lt;br&gt;" style="text;html=1;align=center;verticalAlign=middle;resizable=0;points=[];autosize=1;strokeColor=none;fillColor=none;" parent="1" vertex="1">
          <mxGeometry x="320" y="207" width="120" height="30" as="geometry" />
        </mxCell>
        <mxCell id="8ZKFHSdkrMpT8Rq4CFJd-1" style="edgeStyle=orthogonalEdgeStyle;rounded=0;orthogonalLoop=1;jettySize=auto;html=1;entryX=0;entryY=-0.087;entryDx=0;entryDy=0;entryPerimeter=0;" parent="1" source="LrIv0jJD6RuySrVvURYo-1" target="LrIv0jJD6RuySrVvURYo-9" edge="1">
          <mxGeometry relative="1" as="geometry" />
        </mxCell>
        <mxCell id="8ZKFHSdkrMpT8Rq4CFJd-13" value="" style="endArrow=block;endSize=16;endFill=0;html=1;rounded=0;entryX=0.444;entryY=1.115;entryDx=0;entryDy=0;entryPerimeter=0;exitX=0.5;exitY=0;exitDx=0;exitDy=0;" parent="1" source="LrIv0jJD6RuySrVvURYo-14" target="8ZKFHSdkrMpT8Rq4CFJd-6" edge="1">
          <mxGeometry x="0.0441" y="-59" width="160" relative="1" as="geometry">
            <mxPoint x="330" y="220" as="sourcePoint" />
            <mxPoint x="490" y="220" as="targetPoint" />
            <mxPoint as="offset" />
          </mxGeometry>
        </mxCell>
        <mxCell id="8ZKFHSdkrMpT8Rq4CFJd-15" value="" style="endArrow=block;endSize=16;endFill=0;html=1;rounded=0;entryX=0.444;entryY=1.115;entryDx=0;entryDy=0;entryPerimeter=0;exitX=0.5;exitY=0;exitDx=0;exitDy=0;" parent="1" source="LrIv0jJD6RuySrVvURYo-10" edge="1">
          <mxGeometry x="0.0441" y="-59" width="160" relative="1" as="geometry">
            <mxPoint x="519.5" y="450" as="sourcePoint" />
            <mxPoint x="520.5" y="296" as="targetPoint" />
            <mxPoint as="offset" />
            <Array as="points">
              <mxPoint x="295" y="400" />
              <mxPoint x="520" y="400" />
            </Array>
          </mxGeometry>
        </mxCell>
        <mxCell id="8ZKFHSdkrMpT8Rq4CFJd-16" value="" style="endArrow=block;endSize=16;endFill=0;html=1;rounded=0;entryX=0.444;entryY=1.115;entryDx=0;entryDy=0;entryPerimeter=0;exitX=0.5;exitY=0;exitDx=0;exitDy=0;" parent="1" source="LrIv0jJD6RuySrVvURYo-18" edge="1">
          <mxGeometry x="0.0441" y="-59" width="160" relative="1" as="geometry">
            <mxPoint x="519.5" y="450" as="sourcePoint" />
            <mxPoint x="520.5" y="296" as="targetPoint" />
            <mxPoint as="offset" />
            <Array as="points">
              <mxPoint x="740" y="400" />
              <mxPoint x="521" y="400" />
            </Array>
          </mxGeometry>
        </mxCell>
      </root>
    </mxGraphModel>
  </diagram>
  <diagram id="EPSuDPkS4WmUbfOK3m1O" name="Page-2">
    <mxGraphModel dx="1418" dy="820" grid="1" gridSize="10" guides="1" tooltips="1" connect="1" arrows="1" fold="1" page="1" pageScale="1" pageWidth="827" pageHeight="1169" math="0" shadow="0">
      <root>
        <mxCell id="0" />
        <mxCell id="1" parent="0" />
      </root>
    </mxGraphModel>
  </diagram>
</mxfile>
